<mxfile host="app.diagrams.net" agent="Mozilla/5.0 (Windows NT 10.0; Win64; x64) AppleWebKit/537.36 (KHTML, like Gecko) Chrome/129.0.0.0 Safari/537.36" version="24.7.17">
  <diagram name="Page-1" id="pFuhcllCZ38qWpk-BiKO">
    <mxGraphModel dx="955" dy="506" grid="1" gridSize="10" guides="1" tooltips="1" connect="1" arrows="1" fold="1" page="1" pageScale="1" pageWidth="850" pageHeight="1100" math="0" shadow="0">
      <root>
        <mxCell id="0" />
        <mxCell id="1" parent="0" />
        <mxCell id="LaH8PRnNaLwqLAL-shKG-4" value="" style="edgeStyle=orthogonalEdgeStyle;rounded=0;orthogonalLoop=1;jettySize=auto;html=1;" edge="1" parent="1" source="LaH8PRnNaLwqLAL-shKG-2" target="LaH8PRnNaLwqLAL-shKG-3">
          <mxGeometry relative="1" as="geometry" />
        </mxCell>
        <mxCell id="LaH8PRnNaLwqLAL-shKG-2" value="Mulai" style="strokeWidth=2;html=1;shape=mxgraph.flowchart.start_1;whiteSpace=wrap;fillColor=#f8cecc;strokeColor=#b85450;" vertex="1" parent="1">
          <mxGeometry x="370" y="10" width="100" height="60" as="geometry" />
        </mxCell>
        <mxCell id="LaH8PRnNaLwqLAL-shKG-8" value="" style="edgeStyle=orthogonalEdgeStyle;rounded=0;orthogonalLoop=1;jettySize=auto;html=1;" edge="1" parent="1" source="LaH8PRnNaLwqLAL-shKG-3" target="LaH8PRnNaLwqLAL-shKG-5">
          <mxGeometry relative="1" as="geometry" />
        </mxCell>
        <mxCell id="LaH8PRnNaLwqLAL-shKG-3" value="&lt;div&gt;username_benar = &quot;Admin&quot;&lt;/div&gt;&lt;div&gt;password_benar = &quot;5555&quot;&lt;/div&gt;&lt;div&gt;status_login = False&lt;/div&gt;&lt;div&gt;batas_login = 3&lt;/div&gt;" style="rounded=0;whiteSpace=wrap;html=1;fillColor=#f8cecc;strokeColor=#b85450;" vertex="1" parent="1">
          <mxGeometry x="330" y="110" width="180" height="70" as="geometry" />
        </mxCell>
        <mxCell id="LaH8PRnNaLwqLAL-shKG-10" value="" style="edgeStyle=orthogonalEdgeStyle;rounded=0;orthogonalLoop=1;jettySize=auto;html=1;" edge="1" parent="1" source="LaH8PRnNaLwqLAL-shKG-5">
          <mxGeometry relative="1" as="geometry">
            <mxPoint x="640" y="280" as="targetPoint" />
          </mxGeometry>
        </mxCell>
        <mxCell id="LaH8PRnNaLwqLAL-shKG-12" value="" style="edgeStyle=orthogonalEdgeStyle;rounded=0;orthogonalLoop=1;jettySize=auto;html=1;" edge="1" parent="1" source="LaH8PRnNaLwqLAL-shKG-5">
          <mxGeometry relative="1" as="geometry">
            <mxPoint x="200" y="280" as="targetPoint" />
          </mxGeometry>
        </mxCell>
        <mxCell id="LaH8PRnNaLwqLAL-shKG-5" value="Apakah batas_login &amp;gt; 0?" style="strokeWidth=2;html=1;shape=mxgraph.flowchart.decision;whiteSpace=wrap;fillColor=#f8cecc;strokeColor=#b85450;" vertex="1" parent="1">
          <mxGeometry x="320" y="220" width="200" height="120" as="geometry" />
        </mxCell>
        <mxCell id="LaH8PRnNaLwqLAL-shKG-16" value="" style="edgeStyle=orthogonalEdgeStyle;rounded=0;orthogonalLoop=1;jettySize=auto;html=1;" edge="1" parent="1" source="LaH8PRnNaLwqLAL-shKG-13" target="LaH8PRnNaLwqLAL-shKG-14">
          <mxGeometry relative="1" as="geometry" />
        </mxCell>
        <mxCell id="LaH8PRnNaLwqLAL-shKG-13" value="&lt;em&gt;Input Username dan Password&lt;/em&gt;" style="shape=parallelogram;perimeter=parallelogramPerimeter;whiteSpace=wrap;html=1;fixedSize=1;fillColor=#f8cecc;strokeColor=#b85450;" vertex="1" parent="1">
          <mxGeometry x="590" y="240" width="160" height="70" as="geometry" />
        </mxCell>
        <mxCell id="LaH8PRnNaLwqLAL-shKG-20" value="" style="edgeStyle=orthogonalEdgeStyle;rounded=0;orthogonalLoop=1;jettySize=auto;html=1;" edge="1" parent="1" source="LaH8PRnNaLwqLAL-shKG-14" target="LaH8PRnNaLwqLAL-shKG-19">
          <mxGeometry relative="1" as="geometry" />
        </mxCell>
        <mxCell id="LaH8PRnNaLwqLAL-shKG-21" value="" style="edgeStyle=orthogonalEdgeStyle;rounded=0;orthogonalLoop=1;jettySize=auto;html=1;" edge="1" parent="1" source="LaH8PRnNaLwqLAL-shKG-14" target="LaH8PRnNaLwqLAL-shKG-18">
          <mxGeometry relative="1" as="geometry" />
        </mxCell>
        <mxCell id="LaH8PRnNaLwqLAL-shKG-14" value="Username dan Password Benar?" style="rhombus;whiteSpace=wrap;html=1;fillColor=#f8cecc;strokeColor=#b85450;" vertex="1" parent="1">
          <mxGeometry x="555" y="350" width="230" height="100" as="geometry" />
        </mxCell>
        <mxCell id="LaH8PRnNaLwqLAL-shKG-15" value="Gagal Login" style="shape=parallelogram;perimeter=parallelogramPerimeter;whiteSpace=wrap;html=1;fixedSize=1;fillColor=#f8cecc;strokeColor=#b85450;" vertex="1" parent="1">
          <mxGeometry x="90" y="250" width="120" height="60" as="geometry" />
        </mxCell>
        <mxCell id="LaH8PRnNaLwqLAL-shKG-18" value="Gagal Login" style="ellipse;whiteSpace=wrap;html=1;fillColor=#f8cecc;strokeColor=#b85450;" vertex="1" parent="1">
          <mxGeometry x="380" y="360" width="120" height="80" as="geometry" />
        </mxCell>
        <mxCell id="LaH8PRnNaLwqLAL-shKG-29" value="" style="edgeStyle=orthogonalEdgeStyle;rounded=0;orthogonalLoop=1;jettySize=auto;html=1;" edge="1" parent="1" source="LaH8PRnNaLwqLAL-shKG-19" target="LaH8PRnNaLwqLAL-shKG-28">
          <mxGeometry relative="1" as="geometry" />
        </mxCell>
        <mxCell id="LaH8PRnNaLwqLAL-shKG-19" value="Tampilkan Menu Katalog Merchandise F1" style="rounded=0;whiteSpace=wrap;html=1;fillColor=#f8cecc;strokeColor=#b85450;" vertex="1" parent="1">
          <mxGeometry x="860" y="370" width="180" height="60" as="geometry" />
        </mxCell>
        <mxCell id="LaH8PRnNaLwqLAL-shKG-25" value="false" style="text;html=1;align=center;verticalAlign=middle;resizable=0;points=[];autosize=1;strokeColor=none;fillColor=none;" vertex="1" parent="1">
          <mxGeometry x="235" y="248" width="50" height="30" as="geometry" />
        </mxCell>
        <mxCell id="LaH8PRnNaLwqLAL-shKG-26" value="false" style="text;html=1;align=center;verticalAlign=middle;resizable=0;points=[];autosize=1;strokeColor=none;fillColor=none;" vertex="1" parent="1">
          <mxGeometry x="510" y="370" width="50" height="30" as="geometry" />
        </mxCell>
        <mxCell id="LaH8PRnNaLwqLAL-shKG-34" value="" style="edgeStyle=orthogonalEdgeStyle;rounded=0;orthogonalLoop=1;jettySize=auto;html=1;" edge="1" parent="1" source="LaH8PRnNaLwqLAL-shKG-28" target="LaH8PRnNaLwqLAL-shKG-33">
          <mxGeometry relative="1" as="geometry" />
        </mxCell>
        <mxCell id="LaH8PRnNaLwqLAL-shKG-28" value="ouput&lt;div&gt;&lt;li&gt;&lt;strong&gt;1&lt;/strong&gt;: Lihat Katalog Merchandise&lt;/li&gt;&lt;li&gt;&lt;strong&gt;2&lt;/strong&gt;: Tambah Merchandise Baru&lt;/li&gt;&lt;li&gt;&lt;strong&gt;3&lt;/strong&gt;: Update Stok Merchandise&lt;/li&gt;&lt;li&gt;&lt;strong&gt;4&lt;/strong&gt;: Hapus Merchandise&lt;/li&gt;&lt;li&gt;&lt;strong&gt;5&lt;/strong&gt;: Keluar&lt;/li&gt;&lt;/div&gt;" style="shape=parallelogram;perimeter=parallelogramPerimeter;whiteSpace=wrap;html=1;fixedSize=1;rounded=0;fillColor=#f8cecc;strokeColor=#b85450;" vertex="1" parent="1">
          <mxGeometry x="840" y="470" width="220" height="100" as="geometry" />
        </mxCell>
        <mxCell id="LaH8PRnNaLwqLAL-shKG-30" value="true" style="text;html=1;align=center;verticalAlign=middle;resizable=0;points=[];autosize=1;strokeColor=none;fillColor=none;" vertex="1" parent="1">
          <mxGeometry x="540" y="250" width="40" height="30" as="geometry" />
        </mxCell>
        <mxCell id="LaH8PRnNaLwqLAL-shKG-31" value="true" style="text;html=1;align=center;verticalAlign=middle;resizable=0;points=[];autosize=1;strokeColor=none;fillColor=none;" vertex="1" parent="1">
          <mxGeometry x="800" y="370" width="40" height="30" as="geometry" />
        </mxCell>
        <mxCell id="LaH8PRnNaLwqLAL-shKG-36" value="" style="edgeStyle=orthogonalEdgeStyle;rounded=0;orthogonalLoop=1;jettySize=auto;html=1;" edge="1" parent="1" source="LaH8PRnNaLwqLAL-shKG-33" target="LaH8PRnNaLwqLAL-shKG-35">
          <mxGeometry relative="1" as="geometry" />
        </mxCell>
        <mxCell id="LaH8PRnNaLwqLAL-shKG-33" value="&lt;em&gt;Tampilkan daftar katalog merchandise&lt;/em&gt;." style="whiteSpace=wrap;html=1;fillColor=#f8cecc;strokeColor=#b85450;rounded=0;" vertex="1" parent="1">
          <mxGeometry x="870" y="630" width="160" height="60" as="geometry" />
        </mxCell>
        <mxCell id="LaH8PRnNaLwqLAL-shKG-38" value="" style="edgeStyle=orthogonalEdgeStyle;rounded=0;orthogonalLoop=1;jettySize=auto;html=1;" edge="1" parent="1" source="LaH8PRnNaLwqLAL-shKG-35" target="LaH8PRnNaLwqLAL-shKG-37">
          <mxGeometry relative="1" as="geometry" />
        </mxCell>
        <mxCell id="LaH8PRnNaLwqLAL-shKG-35" value="&lt;em&gt;Input data merchandise baru&lt;/em&gt;." style="whiteSpace=wrap;html=1;fillColor=#f8cecc;strokeColor=#b85450;rounded=0;" vertex="1" parent="1">
          <mxGeometry x="875" y="770" width="150" height="60" as="geometry" />
        </mxCell>
        <mxCell id="LaH8PRnNaLwqLAL-shKG-37" value="" style="whiteSpace=wrap;html=1;fillColor=#f8cecc;strokeColor=#b85450;rounded=0;" vertex="1" parent="1">
          <mxGeometry x="890" y="910" width="120" height="60" as="geometry" />
        </mxCell>
      </root>
    </mxGraphModel>
  </diagram>
</mxfile>
